<svg width="42" height="48" viewBox="0 0 42 48" fill="none" xmlns="http://www.w3.org/2000/svg">
<g clip-path="url(#clip0_209_58)">
<path d="M21.278 48H21.272C20.594 48 19.96 47.818 19.416 47.498L19.434 47.508L13.56 44.034C12.684 43.542 13.112 43.37 13.4 43.268C14.3505 42.9733 15.2593 42.5579 16.104 42.032L16.056 42.06C16.126 42.0281 16.2031 42.0146 16.2797 42.0209C16.3564 42.0272 16.4302 42.0531 16.494 42.096L16.492 42.094L21.004 44.772C21.0884 44.8172 21.1826 44.8407 21.2783 44.8403C21.374 44.84 21.4681 44.8158 21.552 44.77L21.548 44.772L39.136 34.618C39.2176 34.5681 39.2851 34.4982 39.332 34.4149C39.3789 34.3316 39.4037 34.2376 39.404 34.142V13.844C39.4033 13.7477 39.3779 13.6533 39.3303 13.5696C39.2826 13.4859 39.2144 13.4158 39.132 13.366L39.13 13.364L21.548 3.22C21.4649 3.17352 21.3711 3.14928 21.2758 3.14963C21.1805 3.14998 21.0869 3.1749 21.004 3.222L21.006 3.22L3.42805 13.366C3.34415 13.4151 3.27443 13.4852 3.2257 13.5693C3.17697 13.6534 3.15091 13.7488 3.15005 13.846V34.144C3.15005 34.346 3.26005 34.52 3.42405 34.612L3.42605 34.614L8.24605 37.398C10.86 38.706 12.46 37.166 12.46 35.62V15.576C12.46 15.296 12.688 15.068 12.968 15.068H15.206C15.486 15.068 15.714 15.294 15.714 15.576V35.62C15.714 39.11 13.814 41.112 10.506 41.112L10.374 41.114C8.97808 41.1162 7.60927 40.7283 6.42205 39.994L1.84205 37.358C1.28094 37.0308 0.815413 36.5622 0.491864 35.999C0.168315 35.4357 -0.00194844 34.7975 -0.00195312 34.148V13.846C4.68751e-05 12.486 0.734047 11.3 1.82605 10.656L1.84405 10.646L19.434 0.481998C20.0039 0.169602 20.6435 0.00667282 21.2933 0.00842152C21.9432 0.0101702 22.5819 0.176539 23.15 0.491998L23.13 0.481998L40.718 10.646C41.828 11.3 42.56 12.486 42.564 13.846V34.146C42.5633 34.7924 42.3942 35.4275 42.0733 35.9886C41.7524 36.5498 41.2908 37.0176 40.734 37.346L40.716 37.356L23.132 47.512C22.572 47.8368 21.9355 48.0066 21.288 48.004H21.274L21.278 48Z" fill="#424242"/>
<path d="M26.7119 34.018C19.0159 34.018 17.4019 30.486 17.4019 27.52V27.518C17.4019 27.238 17.6279 27.012 17.9079 27.012H20.1879C20.4419 27.012 20.6519 27.198 20.6919 27.44V27.442C21.0339 29.758 22.0579 30.926 26.7119 30.926C30.4179 30.926 31.9919 30.088 31.9919 28.122C31.9919 26.988 31.5459 26.148 25.7879 25.584C20.9759 25.104 17.9999 24.044 17.9999 20.194C17.9999 16.646 20.9919 14.528 25.9999 14.528C31.6359 14.528 34.4239 16.484 34.7759 20.68L34.7779 20.724C34.7779 20.8587 34.7243 20.9879 34.6291 21.0832C34.5338 21.1785 34.4046 21.232 34.2699 21.232H32.0039C31.8891 21.2316 31.7779 21.1921 31.6885 21.1202C31.5991 21.0482 31.5368 20.948 31.5119 20.836V20.832C30.9639 18.396 29.6319 17.618 26.0199 17.618C21.9739 17.618 21.5039 19.028 21.5039 20.082C21.5039 21.362 22.0599 21.734 27.5219 22.456C32.9259 23.172 35.4939 24.182 35.4939 27.98C35.4859 31.818 32.2919 34.014 26.7179 34.014L26.7119 34.018Z" fill="#424242"/>
</g>
<defs>
<clipPath id="clip0_209_58">
<rect width="42" height="48" fill="white"/>
</clipPath>
</defs>
</svg>
