<svg width="42" height="46" viewBox="0 0 42 46" fill="none" xmlns="http://www.w3.org/2000/svg">
<g clip-path="url(#clip0_209_61)">
<path d="M39.9993 35.3182L21.4544 45.8182V37.6358L33.0005 31.2709L39.9993 35.3182ZM41.2707 34.1823V12.1895L34.4973 16.1433V30.2343L41.2707 34.1441V34.1823ZM1.27145 35.3182L19.8164 45.8182V37.6358L8.27018 31.2709L1.27145 35.3182ZM0 34.1823V12.1895L6.77345 16.1433V30.2343L0 34.1823ZM0.773182 10.773L19.8183 0V7.90936L7.54473 14.6828L0.773182 10.773ZM40.4995 10.773L21.4544 0V7.90936L33.726 14.6828L40.4995 10.773ZM19.8183 35.7725L8.41718 29.4974V17.0425L19.8259 23.6326L19.8183 35.7725ZM21.4544 35.7725L32.8631 29.4993V17.0444L21.4544 23.6345V35.7725ZM9.18082 15.6355L20.6354 9.31636L32.0899 15.6355L20.6354 22.2275L9.18082 15.6355Z" fill="#424242"/>
</g>
<defs>
<clipPath id="clip0_209_61">
<rect width="42" height="45.8182" fill="white"/>
</clipPath>
</defs>
</svg>
