<svg width="42" height="42" viewBox="0 0 42 42" fill="none" xmlns="http://www.w3.org/2000/svg">
<path fill-rule="evenodd" clip-rule="evenodd" d="M0 0H42V42H0V0ZM32.1073 35.21C30.1595 35.21 29.0588 34.195 28.2135 32.8125L25.0057 34.6763C26.1642 36.9653 28.532 38.7118 32.1982 38.7118C35.9468 38.7118 38.738 36.7658 38.738 33.2115C38.738 29.9163 36.8445 28.4515 33.4915 27.0113L32.5045 26.5895C30.8105 25.8545 30.0773 25.3768 30.0773 24.192C30.0773 23.2348 30.8123 22.5015 31.9673 22.5015C33.0995 22.5015 33.8293 22.9792 34.5065 24.192L37.5795 22.2197C36.2793 19.9325 34.4767 19.0592 31.9673 19.0592C28.4428 19.0592 26.187 21.3132 26.187 24.2743C26.187 27.4855 28.077 29.0062 30.926 30.219L31.913 30.6425C33.7137 31.43 34.7865 31.9095 34.7865 33.2622C34.7865 34.3927 33.7417 35.21 32.1073 35.21ZM16.8123 35.1838C15.456 35.1838 14.8907 34.2562 14.2712 33.1537L11.0582 35.0997C11.9892 37.0702 13.8197 38.7048 16.9785 38.7048C20.4767 38.7048 22.8725 36.8445 22.8725 32.7583V19.2833H18.9262V32.7057C18.9262 34.678 18.1073 35.1838 16.8105 35.1838H16.8123Z" fill="#424242"/>
</svg>
