<svg width="42" height="42" viewBox="0 0 42 42" fill="none" xmlns="http://www.w3.org/2000/svg">
<path d="M14.106 2.01792C12.8385 1.93242 11.592 2.16042 10.5 2.79042C9.0435 3.63042 8.073 5.06592 7.5525 6.72042C7.032 8.37042 6.912 10.2754 7.1025 12.3559C7.1205 12.5659 7.158 12.7864 7.1835 13.0009C6.9855 13.0849 6.7755 13.1629 6.5835 13.2529C4.6875 14.1274 3.099 15.1834 1.9275 16.4599C0.7575 17.7379 0 19.2949 0 20.9779C0 22.6594 0.7575 24.2179 1.9275 25.4959C3.0975 26.7724 4.6875 27.8284 6.5835 28.7029C6.7755 28.7929 6.9855 28.8709 7.1835 28.9549C7.158 29.1694 7.1205 29.3899 7.101 29.5999C6.912 31.6804 7.032 33.5839 7.5525 35.2369C8.073 36.8899 9.0435 38.3239 10.5 39.1654C11.9565 40.0054 13.683 40.1299 15.375 39.7549C17.067 39.3799 18.7755 38.5294 20.481 37.3249C20.6535 37.2049 20.826 37.0624 21 36.9334C21.1725 37.0624 21.345 37.2034 21.519 37.3249C23.2245 38.5294 24.933 39.3799 26.625 39.7549C28.317 40.1299 30.0435 40.0069 31.5 39.1654C32.9565 38.3254 33.927 36.8899 34.4475 35.2354C34.968 33.5854 35.088 31.6804 34.8975 29.5999C34.8795 29.3899 34.842 29.1694 34.8165 28.9549C35.0145 28.8709 35.2245 28.7929 35.4165 28.7029C37.3125 27.8284 38.901 26.7724 40.0725 25.4959C41.2425 24.2179 42 22.6609 42 20.9779C42 19.2964 41.2425 17.7379 40.0725 16.4599C38.9025 15.1834 37.3125 14.1274 35.4165 13.2529C35.2245 13.1629 35.0145 13.0849 34.8165 13.0009C34.842 12.7864 34.8795 12.5659 34.899 12.3559C35.088 10.2754 34.968 8.37192 34.4475 6.71892C33.927 5.06592 32.9565 3.63192 31.5 2.79042C30.0435 1.95042 28.317 1.82592 26.625 2.20092C24.933 2.57592 23.2245 3.42642 21.519 4.63092C21.3465 4.75092 21.174 4.89342 21 5.02242C20.8275 4.89342 20.655 4.75242 20.481 4.63092C18.7755 3.42642 17.067 2.57592 15.375 2.20092C14.9573 2.10732 14.5331 2.04564 14.106 2.01642V2.01792ZM13.911 5.00592C14.166 5.02392 14.4375 5.06592 14.727 5.13192C15.861 5.38242 17.2185 6.01842 18.651 7.01442C17.3933 8.21158 16.2275 9.50173 15.1635 10.8739C13.4457 11.1082 11.7479 11.4712 10.0845 11.9599C9.9375 10.2229 10.0635 8.72892 10.4115 7.62192C10.77 6.48792 11.304 5.79192 12 5.38842C12.522 5.08842 13.143 4.94742 13.9095 5.00592H13.911ZM28.0905 5.00592C28.8555 4.94742 29.478 5.08842 30 5.38842C30.696 5.79042 31.23 6.48792 31.5885 7.62192C31.9365 8.72892 32.0625 10.2229 31.9155 11.9599C30.2521 11.4712 28.5543 11.1082 26.8365 10.8739C25.7725 9.50173 24.6067 8.21158 23.349 7.01442C24.7815 6.01842 26.139 5.38242 27.273 5.13192C27.5625 5.06742 27.834 5.02392 28.0905 5.00592ZM21 8.91642C21.5265 9.40392 22.053 9.94542 22.5795 10.5124C22.0532 10.4916 21.5267 10.4801 21 10.4779C20.4675 10.4779 19.944 10.4944 19.4205 10.5124C19.9455 9.94542 20.4735 9.40392 21 8.91642ZM21 13.4779C22.4475 13.4779 23.85 13.5634 25.1985 13.7059C26.0257 14.8385 26.7923 16.0142 27.495 17.2279C28.218 18.4804 28.845 19.7374 29.397 20.9779C28.8297 22.2607 28.1948 23.5124 27.495 24.7279C26.7923 25.9417 26.0257 27.1173 25.1985 28.2499C23.8485 28.3924 22.4475 28.4779 21 28.4779C19.5525 28.4779 18.15 28.3924 16.8015 28.2499C15.9743 27.1173 15.2077 25.9417 14.505 24.7279C13.782 23.4754 13.155 22.2184 12.603 20.9779C13.1535 19.7374 13.782 18.4804 14.505 17.2279C15.228 15.9754 16.0035 14.8024 16.8015 13.7059C18.196 13.5558 19.5975 13.4797 21 13.4779ZM12.726 14.3779C12.4485 14.8204 12.1725 15.2659 11.907 15.7279C11.6458 16.1854 11.3928 16.6475 11.148 17.1139C10.923 16.3997 10.7254 15.6772 10.5555 14.9479C11.241 14.7364 11.973 14.5489 12.726 14.3779ZM29.274 14.3779C30.027 14.5489 30.759 14.7364 31.4445 14.9479C31.2855 15.6484 31.08 16.3759 30.852 17.1139C30.6072 16.6475 30.3542 16.1854 30.093 15.7279C29.828 15.2731 29.555 14.823 29.274 14.3779ZM7.731 16.0324C8.115 17.6299 8.6445 19.2874 9.3315 20.9779C8.6747 22.5839 8.13969 24.2371 7.731 25.9234C6.1545 25.1809 4.923 24.3229 4.14 23.4679C3.3375 22.5919 3 21.7819 3 20.9779C3 20.1739 3.3375 19.3639 4.14 18.4879C4.923 17.6329 6.1545 16.7749 7.731 16.0324ZM34.269 16.0324C35.8455 16.7749 37.077 17.6329 37.86 18.4879C38.6625 19.3639 39 20.1739 39 20.9779C39 21.7819 38.6625 22.5919 37.86 23.4679C37.077 24.3229 35.8455 25.1809 34.269 25.9234C33.8603 24.2371 33.3253 22.5839 32.6685 20.9779C33.3248 19.3717 33.8599 17.7186 34.269 16.0324ZM21 16.4779C18.5325 16.4779 16.5 18.5104 16.5 20.9779C16.5 23.4454 18.5325 25.4779 21 25.4779C23.4675 25.4779 25.5 23.4454 25.5 20.9779C25.5 18.5104 23.4675 16.4779 21 16.4779ZM21 19.4779C21.846 19.4779 22.5 20.1319 22.5 20.9779C22.5 21.8239 21.846 22.4779 21 22.4779C20.154 22.4779 19.5 21.8239 19.5 20.9779C19.5 20.1319 20.154 19.4779 21 19.4779ZM11.148 24.8419C11.3925 25.3039 11.64 25.7659 11.9055 26.2279C12.1725 26.6899 12.4485 27.1354 12.726 27.5779C11.973 27.4069 11.241 27.2194 10.5555 27.0079C10.7145 26.3074 10.92 25.5799 11.148 24.8419ZM30.852 24.8419C31.08 25.5799 31.287 26.3074 31.4445 27.0079C30.759 27.2194 30.027 27.4069 29.274 27.5779C29.5515 27.1354 29.8275 26.6899 30.0945 26.2279C30.36 25.7659 30.6075 25.3039 30.852 24.8419ZM10.0845 29.9959C11.6595 30.4609 13.359 30.8329 15.1635 31.0819C16.228 32.4537 17.3938 33.7438 18.651 34.9414C17.2185 35.9374 15.861 36.5734 14.727 36.8239C13.5675 37.0819 12.696 36.9679 12 36.5674C11.304 36.1654 10.77 35.4679 10.4115 34.3339C10.0635 33.2269 9.9375 31.7329 10.0845 29.9959ZM31.9155 29.9959C32.0625 31.7329 31.9365 33.2269 31.5885 34.3339C31.23 35.4679 30.696 36.1639 30 36.5674C29.304 36.9679 28.4325 37.0819 27.273 36.8239C26.139 36.5734 24.7815 35.9374 23.349 34.9414C24.6067 33.7443 25.7725 32.4541 26.8365 31.0819C28.5543 30.8476 30.2521 30.4846 31.9155 29.9959ZM19.4205 31.4434C19.944 31.4614 20.4675 31.4779 21 31.4779C21.5325 31.4779 22.056 31.4614 22.5795 31.4434C22.0545 32.0104 21.5265 32.5519 21 33.0394C20.4534 32.5277 19.9265 31.9954 19.4205 31.4434Z" fill="#424242"/>
</svg>
