<svg width="42" height="42" viewBox="0 0 42 42" fill="none" xmlns="http://www.w3.org/2000/svg">
<path d="M21 0C32.5972 0 42 9.40275 42 21C42 32.5972 32.5972 42 21 42C9.40275 42 0 32.5972 0 21C0 9.40275 9.40275 0 21 0ZM16.8263 27.9965C17.1325 29.1252 17.0992 30.1805 16.7842 31.1325L16.6705 31.4475C16.6285 31.5542 16.5795 31.6575 16.534 31.7555C16.289 32.263 15.9635 32.7355 15.5627 33.173C14.3412 34.5012 12.6368 35.0052 11.9052 34.5817C11.1178 34.1232 11.5098 32.2455 12.9272 30.7492C14.4515 29.1427 16.6372 28.1085 16.6372 28.1085V28.1033L16.8263 27.9965ZM34.1705 8.98975C33.222 5.257 27.0357 4.03025 21.182 6.111C17.7013 7.34825 13.93 9.2925 11.2192 11.8282C7.994 14.84 7.48125 17.465 7.693 18.5623C8.44025 22.4315 13.7428 24.962 15.9233 26.8398V26.8503C15.281 27.1653 10.5753 29.526 9.47275 31.969C8.2915 34.5415 9.6565 36.3807 10.549 36.6152C13.3053 37.3783 16.1403 35.9852 17.6628 33.7295C19.1328 31.5228 19.0033 28.6877 18.3697 27.2965C19.2377 27.0602 20.2598 26.9553 21.5723 27.1145C25.249 27.5345 25.984 29.8445 25.8247 30.7895C25.6672 31.7327 24.9095 32.284 24.6453 32.4415C24.3827 32.6007 24.304 32.6515 24.3285 32.7583C24.3548 32.9157 24.4878 32.9158 24.696 32.8895C24.9848 32.837 26.614 32.102 26.6928 30.3153C26.7715 28.0578 24.6173 25.5395 20.7865 25.5903C19.2115 25.6182 18.2122 25.7495 17.5053 26.0382C17.4574 25.965 17.3948 25.9024 17.3215 25.8545C14.959 23.3083 10.5752 21.5233 10.759 18.137C10.8115 16.9032 11.2578 13.65 19.159 9.7125C25.6427 6.482 30.8157 7.37625 31.7082 9.345C32.991 12.152 28.9502 17.3775 22.204 18.137C19.6315 18.4258 18.2927 17.43 17.9497 17.0607C17.584 16.667 17.5315 16.6408 17.4002 16.7213C17.1903 16.8263 17.3215 17.1675 17.4002 17.3775C17.6103 17.9025 18.424 18.8212 19.8433 19.2937C21.0752 19.6875 24.0957 19.922 27.7183 18.5063C31.7852 16.933 34.9615 12.5475 34.0427 8.8725L34.1705 8.98975Z" fill="#424242"/>
</svg>
